<svg width="14" height="14" viewBox="0 0 14 14" fill="none" xmlns="http://www.w3.org/2000/svg">
<mask id="path-1-inside-1_79_99" fill="white">
<path d="M14 8H8V14H6V8H0V6H6V0H8V6H14V8Z"/>
</mask>
<path d="M14 8H8V14H6V8H0V6H6V0H8V6H14V8Z" fill="#F4F4F4"/>
<path d="M14 8V11H17V8H14ZM8 8V5H5V8H8ZM8 14V17H11V14H8ZM6 14H3V17H6V14ZM6 8H9V5H6V8ZM0 8H-3V11H0V8ZM0 6V3H-3V6H0ZM6 6V9H9V6H6ZM6 0V-3H3V0H6ZM8 0H11V-3H8V0ZM8 6H5V9H8V6ZM14 6H17V3H14V6ZM14 8V5H8V8V11H14V8ZM8 8H5V14H8H11V8H8ZM8 14V11H6V14V17H8V14ZM6 14H9V8H6H3V14H6ZM6 8V5H0V8V11H6V8ZM0 8H3V6H0H-3V8H0ZM0 6V9H6V6V3H0V6ZM6 6H9V0H6H3V6H6ZM6 0V3H8V0V-3H6V0ZM8 0H5V6H8H11V0H8ZM8 6V9H14V6V3H8V6ZM14 6H11V8H14H17V6H14Z" fill="#F4F4F4" mask="url(#path-1-inside-1_79_99)"/>
</svg>
